<?xml version="1.0" encoding="iso-8859-1"?>
<!-- Generator: Adobe Illustrator 19.0.0, SVG Export Plug-In . SVG Version: 6.00 Build 0)  -->
<svg width="40px" height="40px" version="1.1" id="Layer_1" xmlns="http://www.w3.org/2000/svg" xmlns:xlink="http://www.w3.org/1999/xlink" x="0px" y="0px"
	 viewBox="0 0 512.001 512.001" style="enable-background:new 0 0 512.001 512.001;" xml:space="preserve">
<path style="fill:#FFFFFF;" d="M139.965,504.155c-26.518,0-48.015-21.497-48.015-48.015c0-26.518,21.497-48.015,48.015-48.015
	h280.086v96.03H139.965z"/>
<rect x="155.974" y="424.128" style="fill:#889EBD;" width="248.082" height="64.024"/>
<path style="fill:#AACD4C;" d="M139.965,480.148c-13.259,0-24.007-10.748-24.007-24.007c0-13.259,10.748-24.007,24.007-24.007
	h16.005v48.015h-16.005V480.148z"/>
<path style="fill:#6A86AC;" d="M91.95,464.204c0.177-60.169,48.015-56.018,48.015-56.018V8.003c0,0-47.838-4.151-48.015,56.018
	V464.204z"/>
<rect x="138.632" style="fill:#95C11F;" width="281.417" height="408.125"/>
<rect x="195.983" y="48.015" style="fill:#FFFFFF;" width="168.055" height="128.037"/>
<g>
	<rect x="132.116" y="56.022" style="fill:#1D1D1B;" width="15.689" height="312.095"/>
	<path style="fill:#1D1D1B;" d="M139.965,415.97h287.931V0.158H139.965c-30.801,0-55.86,25.059-55.86,55.86v400.124
		c0,30.802,25.059,55.86,55.86,55.86h287.931v-87.869h-15.689v72.179H139.965c-22.149,0-40.17-18.02-40.17-40.17
		C99.795,433.99,117.814,415.97,139.965,415.97z M99.795,56.018c0-19.465,13.919-35.736,32.326-39.395v23.39h15.689V15.847h264.397
		V400.28H147.81v-16.162H132.12v16.727c-12.607,1.78-23.879,7.77-32.326,16.517V56.018z"/>
	<path style="fill:#1D1D1B;" d="M139.965,487.992c-17.564,0-31.852-14.289-31.852-31.852c0-17.564,14.289-31.852,31.852-31.852
		v15.689c-8.913,0-16.162,7.251-16.162,16.162c0,8.912,7.251,16.162,16.162,16.162V487.992z"/>
	<rect x="148.13" y="424.128" style="fill:#1D1D1B;" width="15.689" height="64.024"/>
	<rect x="171.978" y="424.285" style="fill:#1D1D1B;" width="232.068" height="15.689"/>
	<rect x="171.978" y="448.301" style="fill:#1D1D1B;" width="232.068" height="15.689"/>
	<rect x="171.978" y="472.306" style="fill:#1D1D1B;" width="232.068" height="15.689"/>
	<rect x="235.991" y="360.272" style="fill:#1D1D1B;" width="88.028" height="15.689"/>
	<path style="fill:#1D1D1B;" d="M371.878,183.898H188.137V40.17h183.742V183.898z M203.826,168.209h152.363V55.86H203.826V168.209z"
		/>
	<rect x="219.987" y="72.182" style="fill:#1D1D1B;" width="120.035" height="15.689"/>
	<rect x="219.987" y="104.189" style="fill:#1D1D1B;" width="88.028" height="15.689"/>
	<rect x="219.987" y="136.195" style="fill:#1D1D1B;" width="72.022" height="15.689"/>
</g>
<g>
</g>
<g>
</g>
<g>
</g>
<g>
</g>
<g>
</g>
<g>
</g>
<g>
</g>
<g>
</g>
<g>
</g>
<g>
</g>
<g>
</g>
<g>
</g>
<g>
</g>
<g>
</g>
<g>
</g>
</svg>
