<?xml version="1.0" encoding="iso-8859-1"?>
<!-- Generator: Adobe Illustrator 19.0.0, SVG Export Plug-In . SVG Version: 6.00 Build 0)  -->
<svg width="40px" height="40px" version="1.1" id="Layer_1" xmlns="http://www.w3.org/2000/svg" xmlns:xlink="http://www.w3.org/1999/xlink" x="0px" y="0px"
	 viewBox="0 0 512 512" style="enable-background:new 0 0 512 512;" xml:space="preserve">
<polygon style="fill:#A7A9AC;" points="282.122,52.245 282.122,114.939 256,114.939 229.878,114.939 229.878,52.245 188.082,52.245 
	188.082,10.449 323.918,10.449 323.918,52.245 "/>
<path style="fill:#F1F2F2;" d="M407.51,308.245c0,83.694-67.816,151.51-151.51,151.51s-151.51-67.816-151.51-151.51
	s67.816-151.51,151.51-151.51S407.51,224.551,407.51,308.245z M278.153,330.398l44.306-88.602l-88.613,44.296l-44.301,88.613
	L278.153,330.398z"/>
<path style="fill:#D1D3D4;" d="M256,114.939c106.785,0,193.306,86.51,193.306,193.306c0,106.785-86.521,193.306-193.306,193.306
	c-106.791,0-193.306-86.521-193.306-193.306C62.694,201.449,149.209,114.939,256,114.939z M256,459.755
	c83.694,0,151.51-67.816,151.51-151.51S339.694,156.735,256,156.735s-151.51,67.816-151.51,151.51S172.306,459.755,256,459.755z"/>
<polygon style="fill:#31C0D8;" points="278.153,330.398 189.546,374.704 233.847,286.092 "/>
<polygon style="fill:#F4661E;" points="322.459,241.796 278.153,330.398 233.847,286.092 "/>
<g>
	<path style="fill:#231F20;" d="M400.086,164.156c-29.714-29.713-67.001-49.105-107.515-56.403V62.694h31.347
		c5.771,0,10.449-4.679,10.449-10.449V10.449C334.367,4.678,329.689,0,323.918,0H188.082c-5.771,0-10.449,4.678-10.449,10.449
		v41.796c0,5.77,4.678,10.449,10.449,10.449h31.347v45.059c-40.515,7.297-77.803,26.689-107.517,56.403
		c-38.476,38.475-59.667,89.648-59.667,144.089c0,54.438,21.191,105.609,59.667,144.086C150.389,490.809,201.561,512,256,512
		c54.437,0,105.608-21.191,144.086-59.668c38.478-38.479,59.669-89.649,59.669-144.087
		C459.755,253.804,438.565,202.632,400.086,164.156z M240.327,104.49V62.694H256V41.796h-57.469V20.898h114.939v20.898h-31.347
		c-5.771,0-10.449,4.679-10.449,10.449v52.245H240.327z M256,491.102c-100.827,0-182.857-82.03-182.857-182.857
		S155.173,125.388,256,125.388s182.857,82.03,182.857,182.857S356.827,491.102,256,491.102z"/>
	<path style="fill:#231F20;" d="M256,146.286c-89.304,0-161.959,72.654-161.959,161.959S166.696,470.204,256,470.204
		s161.959-72.654,161.959-161.959S345.304,146.286,256,146.286z M266.449,448.918v-20.51h-20.898v20.51
		c-69.47-5.111-125.114-60.755-130.225-130.225h20.51v-20.898h-20.51c5.112-69.47,60.756-125.114,130.225-130.225v20.51h20.898
		v-20.51c69.47,5.111,125.114,60.755,130.225,130.225h-20.51v20.898h20.51C391.563,388.164,335.919,443.808,266.449,448.918z"/>
	<path style="fill:#231F20;" d="M317.787,232.45l-88.613,44.296c-2.023,1.011-3.662,2.651-4.674,4.674L180.2,370.033
		c-2.011,4.023-1.223,8.881,1.958,12.061c2.006,2.006,4.68,3.06,7.392,3.06c1.586,0,3.185-0.362,4.67-1.103l88.607-44.306
		c2.022-1.011,3.661-2.651,4.673-4.673l44.306-88.602c2.011-4.023,1.223-8.881-1.957-12.061
		C326.67,231.228,321.809,230.438,317.787,232.45z M236.71,303.733l23.804,23.803l-47.606,23.804L236.71,303.733z M275.291,312.758
		l-23.804-23.803l47.607-23.798L275.291,312.758z"/>
	<path style="fill:#231F20;" d="M229.878,224.653v-20.898c-43.212,0-78.367,35.156-78.367,78.367h20.898
		C172.408,250.434,198.189,224.653,229.878,224.653z"/>
</g>
<g>
</g>
<g>
</g>
<g>
</g>
<g>
</g>
<g>
</g>
<g>
</g>
<g>
</g>
<g>
</g>
<g>
</g>
<g>
</g>
<g>
</g>
<g>
</g>
<g>
</g>
<g>
</g>
<g>
</g>
</svg>
