<?xml version="1.0" encoding="iso-8859-1"?>
<!-- Generator: Adobe Illustrator 19.0.0, SVG Export Plug-In . SVG Version: 6.00 Build 0)  -->
<svg width="40px" height="40px" version="1.1" id="Layer_1" xmlns="http://www.w3.org/2000/svg" xmlns:xlink="http://www.w3.org/1999/xlink" x="0px" y="0px"
	 viewBox="0 0 490 490" style="enable-background:new 0 0 490 490;" xml:space="preserve">
<g>
	<g id="XMLID_26_">
		<g>
			<polygon style="fill:#E6E7E8;" points="330,97.5 330,162.5 315,162.5 295,162.5 295,97.5 			"/>
			<polygon style="fill:#E6E7E8;" points="195,97.5 195,162.5 175,162.5 160,162.5 160,97.5 			"/>
			<path style="fill:#A7A9AC;" d="M355,72.5v25h-25h-35H195h-35h-25v-25c0-5.498,4.502-10,10-10h200
				C350.498,62.5,355,67.002,355,72.5z"/>
			<polygon style="fill:#FFFFFF;" points="315,162.5 315,232.5 175,232.5 175,162.5 195,162.5 295,162.5 			"/>
			<path style="fill:#D1D3D4;" d="M245,272.5h100c10.996,0,20-9.004,20-20v-15h115v190H10v-190h115v15c0,10.996,8.999,20,20,20H245z
				 M435,382.5v-40v-30H285v70c0,5.498,4.502,10,10,10h130C430.498,392.5,435,387.998,435,382.5z M205,382.5v-40v-30H55v70
				c0,5.498,4.502,10,10,10h130C200.498,392.5,205,387.998,205,382.5z"/>
			<path style="fill:#9CD2CB;" d="M315,162.5h15h35v75v15c0,10.996-9.004,20-20,20H245H145c-11.001,0-20-9.004-20-20v-15v-75h35h15
				v70h140V162.5z"/>
			<path style="fill:#FFD248;" d="M55,382.5v-70h150v30v40c0,5.498-4.502,10-10,10H65C59.502,392.5,55,387.998,55,382.5z"/>
			<path style="fill:#FFD248;" d="M285,312.5h150v30v40c0,5.498-4.502,10-10,10H295c-5.498,0-10-4.502-10-10V312.5z"/>
			<path style="fill:#FFD248;" d="M400,162.5h20c33.096,0,60,26.895,60,60v15H365v-75H400z"/>
			<path style="fill:#FFD248;" d="M125,237.5H10v-15c0-33.105,26.899-60,60-60h20h35V237.5z"/>
		</g>
		<g>
			<path style="fill:#231F20;" d="M420,152.5h-80v-45h15c5.523,0,10-4.478,10-10v-25c0-11.028-8.972-20-20-20H145
				c-11.028,0-20,8.972-20,20v25c0,5.522,4.477,10,10,10h15v45H70c-38.598,0-70,31.401-70,70v205c0,5.522,4.477,10,10,10h470
				c5.523,0,10-4.478,10-10v-205C490,183.901,458.598,152.5,420,152.5z M470,222.5v5h-95v-55h15v40h20v-40h10
				C447.57,172.5,470,194.93,470,222.5z M145,262.5c-5.514,0-10-4.486-10-10v-80h25h5v50h-15v20h25h140h25v-20h-15v-50h5h25v80
				c0,5.514-4.486,10-10,10H145z M285,107.5v45h-80v-45H285z M305,172.5v50H185v-50H305z M320,152.5h-5h-10v-45h15V152.5z M145,72.5
				h200v15H145V72.5z M185,107.5v45h-10h-5v-45H185z M70,172.5h10v40h20v-40h15v55H20v-5C20,194.93,42.43,172.5,70,172.5z M20,417.5
				v-170h95v5c0,16.542,13.458,30,30,30h90v110h20v-110h90c16.542,0,30-13.458,30-30v-5h95v170H20z"/>
			<rect x="220" y="187.5" style="fill:#231F20;" width="50" height="20"/>
			<path style="fill:#231F20;" d="M435,302.5H285c-5.523,0-10,4.478-10,10v70c0,11.028,8.972,20,20,20h130c11.028,0,20-8.972,20-20
				v-70C445,306.978,440.523,302.5,435,302.5z M295,382.5v-60h130v10H315v20h60v20h20v-20h30.001v30H295z"/>
			<path style="fill:#231F20;" d="M205,302.5H55c-5.523,0-10,4.478-10,10v70c0,11.028,8.972,20,20,20h130c11.028,0,20-8.972,20-20
				v-70C215,306.978,210.523,302.5,205,302.5z M65,382.5v-60h130v10H85v20h60v20h20v-20h30.001v30H65z"/>
		</g>
	</g>
</g>
<g>
</g>
<g>
</g>
<g>
</g>
<g>
</g>
<g>
</g>
<g>
</g>
<g>
</g>
<g>
</g>
<g>
</g>
<g>
</g>
<g>
</g>
<g>
</g>
<g>
</g>
<g>
</g>
<g>
</g>
</svg>
